:SAMPLES-PER-SECOND 30
:FULLY-SPECIFIED
:DEGREES
154
root  33 38.1911 -13.7445 -1.43489 64.9411 0.595428
RightUpLeg  -21.0251 -8.53966 3.29923
RightLeg  34.7237 -9.2258 -7.07736
RightFoot  -9.37087 0.0491969 -6.54668
RightToes  0.00048216 0.542163 -0.142577
Spine  25.0734 -7.88792 5.02912
Spine1  6.76856 -11.5976 16.2981
HEad  8.21135 5.08362 -8.42997
LeftShoulder1  9.82339 -16.568 -42.5141
LeftArm  21.514 -37.8164 -55.2797
LeftForeArm  6.18398 -32.2091 -6.75536
LeftHand  -0.25398 0.0180481 5.50724
RightShoulder  4.25906 8.37196 29.8992
RightArm  -16.13 -14.9565 27.5389
RightForeArm  -8.73328 73.8754 48.7615
RightHand  -1.9536 5.68906 -20.6411
LeftUpLeg  -27.1283 21.6431 1.50047
LeftLeg  62.843 0.947367 2.59191
LeftFoot  -2.11 0.306248 -3.64443
LeftToes  1.06248e-005 4.65856e-005 -8.18499e-006
155
root  34.3584 38.4604 -13.7295 0.295441 63.1139 2.53169
RightUpLeg  -18.7668 -6.9759 1.14769
RightLeg  34.3273 -8.76204 -6.64538
RightFoot  -10.3288 -0.0230493 -5.21038
RightToes  0.00048216 0.542163 -0.142577
Spine  25.4824 -7.33274 4.40792
Spine1  6.4827 -10.9694 15.736
HEad  8.31914 4.86409 -8.24615
LeftShoulder1  9.88372 -16.6352 -42.6402
LeftArm  20.3387 -37.6258 -53.7306
LeftForeArm  5.69726 -31.3691 -6.56693
LeftHand  -0.25398 0.0180481 5.50724
RightShoulder  4.31719 8.43527 30.2006
RightArm  -15.0239 -13.2762 28.1403
RightForeArm  -12.2968 72.7023 44.235
RightHand  -2.12364 6.42317 -21.0435
LeftUpLeg  -28.6434 21.1491 1.89494
LeftLeg  53.806 2.03855 3.45015
LeftFoot  -3.15243 0.273221 -3.5544
LeftToes  1.06248e-005 4.65856e-005 -8.18499e-006
156
root  35.7186 38.5957 -13.7167 1.12189 60.7068 3.44308
RightUpLeg  -16.8759 -4.8162 -0.542034
RightLeg  34.2803 -8.24048 -6.25905
RightFoot  -11.5484 -0.0842661 -3.55158
RightToes  0.00048216 0.542163 -0.142577
Spine  25.6226 -6.74258 4.11584
Spine1  6.43084 -10.1587 14.7296
HEad  8.36402 4.89939 -7.91441
LeftShoulder1  9.87585 -16.6376 -42.5984
LeftArm  18.7816 -37.1674 -52.1804
LeftForeArm  5.45392 -30.8934 -6.45992
LeftHand  -0.25398 0.0180481 5.50724
RightShoulder  4.40438 8.58612 30.4747
RightArm  -14.0252 -11.9054 28.908
RightForeArm  -14.538 71.7323 41.128
RightHand  -2.3002 7.10905 -21.5343
LeftUpLeg  -28.6704 21.73 2.95927
LeftLeg  42.7853 3.24995 3.62715
LeftFoot  -2.65709 0.338285 -4.2387
LeftToes  1.06248e-005 4.65856e-005 -8.18499e-006
157
root  37.1076 38.5998 -13.721 1.27763 58.1664 3.44533
RightUpLeg  -15.4931 -2.60165 -1.78607
RightLeg  34.7335 -7.91927 -6.12562
RightFoot  -13.0274 -0.122771 -2.30788
RightToes  0.00048216 0.542163 -0.142577
Spine  25.367 -6.4199 4.23841
Spine1  6.69062 -9.47474 13.2651
HEad  8.39562 5.29264 -7.40819
LeftShoulder1  9.75959 -16.5742 -42.2043
LeftArm  16.7076 -36.3836 -50.3727
LeftForeArm  5.51546 -31.2375 -6.54385
LeftHand  -0.25398 0.0180481 5.50724
RightShoulder  4.52017 8.80421 30.7733
RightArm  -12.8623 -10.5666 29.8219
RightForeArm  -16.2494 70.9083 38.8432
RightHand  -2.45245 7.58965 -22.0939
LeftUpLeg  -27.6123 22.3552 4.39407
LeftLeg  30.582 3.40329 2.64709
LeftFoot  -1.89471 0.40284 -4.74276
LeftToes  1.06248e-005 4.65856e-005 -8.18499e-006
158
root  38.5176 38.5043 -13.7473 1.10118 55.5553 3.16321
RightUpLeg  -14.383 -0.0831764 -2.92951
RightLeg  35.7341 -7.74598 -6.21163
RightFoot  -14.614 -0.136665 -1.33548
RightToes  0.00048216 0.542163 -0.142577
Spine  25.1806 -6.30111 4.32222
Spine1  7.22606 -8.92761 11.4781
HEad  8.41034 5.92482 -6.77915
LeftShoulder1  9.57941 -16.4823 -41.5723
LeftArm  14.0124 -35.197 -48.1953
LeftForeArm  6.10742 -32.6815 -6.88405
LeftHand  -0.25398 0.0180481 5.50724
RightShoulder  4.65181 9.03479 31.1521
RightArm  -11.2564 -8.97226 30.6902
RightForeArm  -18.2604 69.9428 36.5085
RightHand  -2.553 7.88146 -22.4812
LeftUpLeg  -25.4568 20.7673 6.82063
LeftLeg  18.3489 3.95054 1.22294
LeftFoot  -1.5794 0.39658 -4.53009
LeftToes  1.06248e-005 4.65856e-005 -8.18499e-006
159
root  39.9595 38.3112 -13.8044 0.528915 52.58 2.65874
RightUpLeg  -13.4245 3.06267 -4.06317
RightLeg  37.1888 -7.18444 -6.08164
RightFoot  -16.1721 -0.095201 0.312875
RightToes  0.00048216 0.542163 -0.142577
Spine  25.2743 -6.11604 4.37227
Spine1  7.90611 -8.26626 9.64179
HEad  8.38322 6.51329 -6.13371
LeftShoulder1  9.43228 -16.4183 -41.0247
LeftArm  11.0945 -33.7996 -45.8387
LeftForeArm  7.17426 -34.9052 -7.42176
LeftHand  -0.25398 0.0180481 5.50724
RightShoulder  4.75234 9.22235 31.3976
RightArm  -9.43709 -7.02448 31.6014
RightForeArm  -20.9501 68.4377 33.3949
RightHand  -2.60889 8.1815 -22.4706
LeftUpLeg  -22.0661 14.2637 11.765
LeftLeg  7.67629 9.39864 -0.481544
LeftFoot  -2.66925 0.326913 -4.09289
LeftToes  1.06248e-005 4.65856e-005 -8.18499e-006
160
root  41.4779 38.029 -13.9241 -0.220566 49.1451 1.85744
RightUpLeg  -12.7986 6.32064 -5.21655
RightLeg  38.7635 -6.21401 -5.60246
RightFoot  -17.6577 0.013876 2.42544
RightToes  0.00048216 0.542163 -0.142577
Spine  25.4829 -5.84352 4.75568
Spine1  8.5723 -7.38743 7.7643
HEad  8.32204 6.8917 -5.57942
LeftShoulder1  9.36623 -16.3943 -40.7662
LeftArm  8.66304 -32.5345 -43.532
LeftForeArm  8.29856 -37.2002 -8.00955
LeftHand  -0.25398 0.0180481 5.50724
RightShoulder  4.8056 9.38939 31.3261
RightArm  -7.83799 -4.80713 32.6811
RightForeArm  -23.8932 66.2681 29.7024
RightHand  -2.65856 8.62392 -22.1944
LeftUpLeg  -19.6206 10.5922 15.0485
LeftLeg  0.650481 13.0148 -1.40621
LeftFoot  -4.82538 0.257005 -4.05322
LeftToes  1.06248e-005 4.65856e-005 -8.18499e-006
161
root  43.0704 37.7292 -14.1498 -0.565948 45.6933 1.18491
RightUpLeg  -12.52 9.06242 -6.7493
RightLeg  39.9461 -5.45077 -5.15953
RightFoot  -18.9258 0.149541 4.18656
RightToes  0.00048216 0.542163 -0.142577
Spine  25.9624 -5.68003 5.16735
Spine1  9.00565 -6.55 5.90319
HEad  8.16172 7.10103 -5.08684
LeftShoulder1  9.33185 -16.3609 -40.678
LeftArm  6.91498 -31.5507 -41.4984
LeftForeArm  9.20883 -39.0873 -8.52503
LeftHand  -0.25398 0.0180481 5.50724
RightShoulder  4.87773 9.62179 31.2136
RightArm  -6.57458 -2.36426 33.5686
RightForeArm  -26.3968 63.8243 26.3554
RightHand  -2.70778 9.07209 -21.9228
LeftUpLeg  -19.0751 11.3305 15.8174
LeftLeg  -0.566635 12.5203 -1.38885
LeftFoot  -4.77615 0.316027 -4.97518
LeftToes  1.06248e-005 4.65856e-005 -8.18499e-006
162
root  44.7097 37.454 -14.5015 -0.376694 42.6917 1.00902
RightUpLeg  -12.5582 11.5649 -9.03648
RightLeg  40.8515 -4.6935 -4.62335
RightFoot  -19.6006 0.335011 6.46293
RightToes  0.00048216 0.542163 -0.142577
Spine  27.0231 -5.53082 5.01118
Spine1  9.0208 -6.05484 4.91744
HEad  7.63433 7.01831 -4.53514
LeftShoulder1  9.32346 -16.3561 -40.6492
LeftArm  5.46136 -30.957 -40.0169
LeftForeArm  9.91194 -40.3928 -8.89517
LeftHand  -0.25398 0.0180481 5.50724
RightShoulder  4.9878 9.88614 31.3028
RightArm  -5.61768 0.334897 33.8321
RightForeArm  -28.2116 61.6193 23.8831
RightHand  -2.69498 9.2661 -21.5491
LeftUpLeg  -20.3175 11.8227 15.5411
LeftLeg  3.26281 10.6923 -0.980174
LeftFoot  0.24498 0.770587 -7.4105
LeftToes  1.06248e-005 4.65856e-005 -8.18499e-006
163
root  46.376 37.2044 -14.9508 0.114548 39.9545 1.26274
RightUpLeg  -13.3952 14.4463 -12.0767
RightLeg  42.3073 -3.41088 -3.60943
RightFoot  -18.7643 0.528737 10.2548
RightToes  0.00048216 0.542163 -0.142577
Spine  28.5153 -4.97806 4.32274
Spine1  8.77243 -5.74521 5.48761
HEad  6.4547 6.26693 -3.98651
LeftShoulder1  9.46698 -16.5261 -40.946
LeftArm  4.02105 -31.148 -39.094
LeftForeArm  10.3959 -40.9039 -9.03129
LeftHand  -0.25398 0.0180481 5.50724
RightShoulder  5.01352 10.0272 31.1019
RightArm  -5.1099 3.23953 33.763
RightForeArm  -29.4171 59.6121 21.9614
RightHand  -2.58473 9.23291 -20.7496
LeftUpLeg  -22.7478 13.6967 13.7628
LeftLeg  9.21223 6.1614 -0.395153
LeftFoot  7.96096 1.70274 -10.3158
LeftToes  1.06248e-005 4.65856e-005 -8.18499e-006
164
root  48.0067 37.0618 -15.4557 0.88916 36.9142 1.82404
RightUpLeg  -15.7802 17.0937 -15.4679
RightLeg  44.9103 -2.79765 -3.31736
RightFoot  -14.9998 0.316097 13.0504
RightToes  0.00048216 0.542163 -0.142577
Spine  30.295 -3.95523 3.50199
Spine1  8.6435 -5.15091 6.51538
HEad  4.67538 4.85393 -3.67398
LeftShoulder1  9.79815 -16.8528 -41.7577
LeftArm  2.69839 -32.4221 -38.2922
LeftForeArm  10.5607 -40.502 -8.89
LeftHand  -0.25398 0.0180481 5.50724
RightShoulder  4.88304 10.0675 30.0161
RightArm  -4.99268 6.24955 34.0751
RightForeArm  -30.1821 57.305 20.0332
RightHand  -2.47582 9.37056 -19.7404
LeftUpLeg  -25.5067 18.4616 10.2733
LeftLeg  15.1354 0.457124 0.0237075
LeftFoot  12.0844 2.25226 -11.23
LeftToes  1.06248e-005 4.65856e-005 -8.18499e-006
165
root  49.5088 37.1462 -16.0061 1.90451 33.528 2.60811
RightUpLeg  -19.6146 17.7238 -18.364
RightLeg  48.2367 -4.39326 -5.62292
RightFoot  -7.87455 -0.342502 10.9043
RightToes  0.00048216 0.542163 -0.142577
Spine  32.7397 -3.05795 2.78509
Spine1  8.69353 -4.22549 6.15373
HEad  2.62607 3.42339 -3.61672
LeftShoulder1  10.0744 -17.0995 -42.4704
LeftArm  1.48674 -34.4255 -37.3136
LeftForeArm  10.3752 -39.4805 -8.57502
LeftHand  -0.25398 0.0180481 5.50724
RightShoulder  4.75558 10.2743 28.5218
RightArm  -4.73793 9.44356 34.8705
RightForeArm  -30.8493 54.4761 18.0049
RightHand  -2.4756 9.87763 -19.1159
LeftUpLeg  -27.3145 22.8972 6.89438
LeftLeg  19.6496 -1.3313 -0.132197
LeftFoot  10.746 1.78836 -9.43979
LeftToes  1.06248e-005 4.65856e-005 -8.18499e-006
